<svg id="Layer_1" data-name="Layer 1" xmlns="http://www.w3.org/2000/svg" viewBox="0 0 1970.9 406.48">
    <defs>
        <style>.cls-1{fill:#f49819;}.cls-2{fill:#676766;}</style>
    </defs>
    <path class="cls-1"
          d="M1813.51,237.82v8.9C1370.19,256,814.15,227.11,388.34,260c-34,6.12-87.59,38-98.31,49.95-19.59,21.81-47,37.92-71.27,50-12,6-33.27,5.46-54,5.46-6.13-.1-31.27.06-37.65-.58-14.28-1.43-113-49.38-119.56-63.22-3.83-8.07-1.27-21,2.3-27.88,5.36-9.87,158-255.13,176.85-260.72,18-5.34,91.35-1.6,99.71.62C329.75,35.46,381.51,226,387.22,237.42c-31.58,3.55-66.53,14.53-92.77,26-80.11-305.66-45-228.14-197.27-16.93-26.09,35.74,37.64,50.89,60.94,62.94,14.92,5.32,57.45,3.46,73-.58,19.65-5.1,37.34-18.87,56.05-29,11.13-6,61.37-26.86,96.85-31.91C851.74,223.23,1342.5,245.11,1813.51,237.82Z"/>
    <path class="cls-1"
          d="M395.34,269.68c8.22,18.21,24.84,82.9,22.11,91.06-5.23,7.05-87.11,5.35-90,3.17-4.71-3.62-5.22-9.37-7.47-15-4.74-11.72-13.72-35.27-13.08-37.93C321.63,293.56,368.53,274.22,395.34,269.68Z"/>
    <path class="cls-2"
          d="M428.93,185.53a6.31,6.31,0,0,1,3.05-1h2.8c.57,0,1.55,0,2.93-.12q9.39-.85,11.11-1.71,4.26-2.31,7.32-8.05,6.35-12.45,14.28-35.28,3.79-10.86,4.76-13.19,3.06-7.32,5.87-15.38l11.47-32.1q2.69-7.57,13-34.67,2.55-6.84,6.22-18.31l3.6-.24,4.27.12A169,169,0,0,1,528.82,48Q531,54.3,536,66.88l18.53,50.17,9.87,27.22q7.82,23.19,10.26,28.5c1.62,3.54,3.13,5.88,4.51,7a18.1,18.1,0,0,0,4.58,1.47q4,1,5.56,1.46a51.09,51.09,0,0,1,7.81,2.69,6.87,6.87,0,0,1,.49,2.07,7.25,7.25,0,0,1-.37,1.83c-2.6.09-4.44.13-5.49.13q-6.22,0-22-.37l-12.2-.27-14.77.18c-1,0-2,0-3-.14s-1.9-.14-2.63-.14h-2.68a6,6,0,0,1-2.44-.73,9,9,0,0,1,.61-3.29,7.75,7.75,0,0,1,2.68-.86l12.81-.85a23.19,23.19,0,0,0,7.57-1.35,11.61,11.61,0,0,0,.73-3.3q0-2.2-3.17-11.38-2.19-6.1-3.84-11.61t-13-36.2a53.14,53.14,0,0,0-8.79-.86l-26.13.24-7.69-.12a77.49,77.49,0,0,0-9.15.61q-1.59,3.66-2.08,5.25l-10.76,33.57q-6.83,19.17-6.83,21.12a10.92,10.92,0,0,0,1.1,3.66,51.78,51.78,0,0,0,6.83,1.34l16.6,1.47q1.35,1.09,1.35,2a6.82,6.82,0,0,1-.37,1.83q-5.49.12-8.42.12-9.76,0-22.71-.61c-4-.16-6.83-.24-8.54-.24s-4.68.08-8.91.24q-4.15.26-6,.25-2.94,0-7.57-.37v-.73A7.74,7.74,0,0,1,428.93,185.53Zm58.24-73.24q13.06.73,29.79.73,9.52,0,16.72-.61a83.36,83.36,0,0,0-2.8-8.91q-7.93-21.23-8.78-23.42L511,51.89l-1.22-2.2q-.74,1.47-5.38,12.57-7.83,19-11.25,29.65-1.59,4.75-3.3,9.46a66,66,0,0,0-2.14,6.59,20.84,20.84,0,0,1-1.28,3.84Z"/>
    <path class="cls-2"
          d="M617.16,158.43q4.51,11.59,6.83,15a34.79,34.79,0,0,0,11.11,10.8,27,27,0,0,0,14,3.84q7,0,13.79-6a13.89,13.89,0,0,0,4.89-10.5A22.1,22.1,0,0,0,662.08,157q-5.75-6.6-21.79-12.64t-21.54-12.88a24.19,24.19,0,0,1-5.5-15.62,24.64,24.64,0,0,1,4.52-14.65,27.62,27.62,0,0,1,12.45-9.58,39,39,0,0,1,14.65-3.24,81.39,81.39,0,0,1,15.56,1.35,39.28,39.28,0,0,1,11.9,4.15q1,6.23,1.59,18.31l.24,3.9c-1,.08-1.95.12-2.68.12h-1.71a35,35,0,0,0-11.17-16q-7.5-5.91-14.83-5.92t-11.84,4.46a15.65,15.65,0,0,0-4.52,11.66,14.58,14.58,0,0,0,3.66,9.76q3.67,4.28,17.16,9.74T667.88,140A28.63,28.63,0,0,1,677,151.44a32,32,0,0,1,2.93,12.83A25.62,25.62,0,0,1,674.35,180a29.78,29.78,0,0,1-13.92,10.32,45.11,45.11,0,0,1-14.95,3,70.34,70.34,0,0,1-28.57-5.73c-.81-.65-1.26-1.88-1.34-3.67q0-1.09-.24-3.54-2-16.47-2-19.53a2.46,2.46,0,0,1,.61-2A6.27,6.27,0,0,1,617.16,158.43Z"/>
    <path class="cls-2"
          d="M708.34,158.43q4.51,11.59,6.84,15a34.59,34.59,0,0,0,11.11,10.8,27,27,0,0,0,14,3.84q7,0,13.79-6a13.92,13.92,0,0,0,4.88-10.5A22.09,22.09,0,0,0,753.27,157q-5.74-6.6-21.79-12.64t-21.55-12.88a24.23,24.23,0,0,1-5.49-15.62A24.63,24.63,0,0,1,709,101.18a27.65,27.65,0,0,1,12.46-9.58,39,39,0,0,1,14.64-3.24,81.49,81.49,0,0,1,15.57,1.35,39.38,39.38,0,0,1,11.9,4.15q1,6.23,1.59,18.31l.24,3.9c-1.06.08-2,.12-2.68.12H761a35.1,35.1,0,0,0-11.17-16q-7.51-5.91-14.83-5.92t-11.84,4.46a15.61,15.61,0,0,0-4.52,11.66,14.58,14.58,0,0,0,3.66,9.76q3.66,4.28,17.15,9.74T759.06,140a28.65,28.65,0,0,1,9.1,11.43,32.13,32.13,0,0,1,2.93,12.83A25.57,25.57,0,0,1,765.53,180a29.75,29.75,0,0,1-13.91,10.32,45.17,45.17,0,0,1-15,3,70.33,70.33,0,0,1-28.56-5.73c-.81-.65-1.26-1.88-1.34-3.67,0-.73-.08-1.91-.25-3.54q-1.95-16.47-2-19.53a2.43,2.43,0,0,1,.61-2A6.25,6.25,0,0,1,708.34,158.43Z"/>
    <path class="cls-2"
          d="M878.63,125l-49,.36h-9.27c-3.75,0-7.57.17-11.48.51a21.7,21.7,0,0,0-1.1,5l.12,1.22v1.22l-.12,6q0,7.44,4.7,18.25A36.29,36.29,0,0,0,826,174q8.73,5.67,21.79,6a45,45,0,0,0,11.11-1.71Q863,177,870.58,172.1l8.79-7.2.73,4.88a15,15,0,0,1-.12,1.83,53.85,53.85,0,0,1-13.92,12.21A66.4,66.4,0,0,1,849,191.51q-4.15,1.1-13.67,1.1a43.72,43.72,0,0,1-17.09-3.54,41.62,41.62,0,0,1-19.59-17.27q-7.15-11.91-7.15-28.87a62.23,62.23,0,0,1,2-13.8,72.47,72.47,0,0,1,7.26-17.94,35.21,35.21,0,0,1,8.67-10.62,57.11,57.11,0,0,1,12.82-8.18,47.71,47.71,0,0,1,18.43-3.29q11.36,0,18.55,4.15a36.75,36.75,0,0,1,14.59,14.16q4.82,8.67,4.82,15.86Zm-68.11-4.39h5.73q6.24,0,37.11-2c3.26-.17,5.25-.49,6-1q2.19-2.32,2.19-4.15a19.47,19.47,0,0,0-2.44-8.61,16.84,16.84,0,0,0-7.51-7.44,25.23,25.23,0,0,0-11.78-2.63q-14.16,0-22.7,10.62Q810.51,113.51,810.52,120.59Z"/>
    <path class="cls-2"
          d="M903.66,158.43q4.51,11.59,6.83,15a34.69,34.69,0,0,0,11.11,10.8,27,27,0,0,0,14,3.84q7,0,13.79-6a13.89,13.89,0,0,0,4.89-10.5A22.1,22.1,0,0,0,948.58,157q-5.75-6.6-21.79-12.64t-21.55-12.88a24.23,24.23,0,0,1-5.49-15.62,24.64,24.64,0,0,1,4.52-14.65,27.62,27.62,0,0,1,12.45-9.58,39,39,0,0,1,14.65-3.24,81.46,81.46,0,0,1,15.56,1.35,39.28,39.28,0,0,1,11.9,4.15q1,6.23,1.59,18.31l.24,3.9c-1,.08-1.95.12-2.68.12h-1.71a35.1,35.1,0,0,0-11.17-16q-7.5-5.91-14.83-5.92t-11.84,4.46a15.65,15.65,0,0,0-4.52,11.66,14.58,14.58,0,0,0,3.66,9.76q3.66,4.28,17.15,9.74T954.38,140a28.63,28.63,0,0,1,9.09,11.43,32.13,32.13,0,0,1,2.93,12.83A25.62,25.62,0,0,1,960.85,180a29.83,29.83,0,0,1-13.92,10.32,45.11,45.11,0,0,1-14.95,3,70.34,70.34,0,0,1-28.57-5.73c-.81-.65-1.26-1.88-1.34-3.67q0-1.09-.24-3.54-2-16.47-2-19.53a2.46,2.46,0,0,1,.61-2A6.27,6.27,0,0,1,903.66,158.43Z"/>
    <path class="cls-2"
          d="M994.84,158.43q4.51,11.59,6.84,15a34.59,34.59,0,0,0,11.11,10.8,27,27,0,0,0,14,3.84q6.95,0,13.79-6a13.92,13.92,0,0,0,4.88-10.5,22.09,22.09,0,0,0-5.73-14.64q-5.74-6.6-21.79-12.64t-21.55-12.88a24.23,24.23,0,0,1-5.49-15.62,24.63,24.63,0,0,1,4.51-14.65,27.6,27.6,0,0,1,12.46-9.58,39,39,0,0,1,14.64-3.24,81.49,81.49,0,0,1,15.57,1.35,39.47,39.47,0,0,1,11.9,4.15q1,6.23,1.59,18.31l.24,3.9c-1.06.08-1.95.12-2.69.12h-1.7a35.18,35.18,0,0,0-11.17-16q-7.51-5.91-14.84-5.92t-11.84,4.46a15.64,15.64,0,0,0-4.51,11.66,14.58,14.58,0,0,0,3.66,9.76q3.66,4.28,17.15,9.74T1045.56,140a28.74,28.74,0,0,1,9.1,11.43,32.13,32.13,0,0,1,2.93,12.83A25.57,25.57,0,0,1,1052,180a29.75,29.75,0,0,1-13.91,10.32,45.17,45.17,0,0,1-15,3,70.33,70.33,0,0,1-28.56-5.73c-.81-.65-1.26-1.88-1.34-3.67,0-.73-.09-1.91-.25-3.54q-1.95-16.47-2-19.53a2.43,2.43,0,0,1,.61-2A6.22,6.22,0,0,1,994.84,158.43Z"/>
    <path class="cls-2"
          d="M1073.33,185.29a12.54,12.54,0,0,1,5.38-1.83,24,24,0,0,0,7.56-2,9,9,0,0,0,2.93-5.25q.85-4.4.86-30.88,0-26-1.59-33.57a22.37,22.37,0,0,0-7-2.69q-1.34-.24-5.61-1.34v-4.09a36.75,36.75,0,0,0,11.71-5.39q4.47-3.3,12.44-13.22h.73c.49,0,1.27,0,2.33-.13a3.17,3.17,0,0,1,1.6.62l-.13,13.91q0,4.27.25,9.16,13-11.85,23.39-16.61a38.72,38.72,0,0,1,16-3.17q10.59,0,16.81,4t11.82,14.53q10.86-10.74,19.72-15a40.74,40.74,0,0,1,17.88-4.27q13.66,0,22.46,8.92t8.91,26.52v10.15l.12,11.12-.12,28.6q-.12,5,2.2,7.58c.65.24,3.13,1,7.45,2.2a17.51,17.51,0,0,1,4.76,1.71,2.13,2.13,0,0,1,.73,1.71,8.9,8.9,0,0,1-.73,3.17h-.85l-12.3-.73c-1.46-.08-3.78-.12-6.94-.12q-5.85,0-16.32.49h-6.21c-.89,0-2.64,0-5.24.12a18.11,18.11,0,0,1-.12-1.95,5.22,5.22,0,0,1,.86-2.45,37.55,37.55,0,0,1,9-2.38c3.82-.61,6.21-1.71,7.14-3.3s1.41-7.92,1.41-19q0-36.06-.86-41.8-1.47-9.18-7.77-14.37t-15.85-5.2a29.34,29.34,0,0,0-14.31,3.85,51.91,51.91,0,0,0-13.71,11.54l-.12,2.93v18.67l-.49,14.53q0,22.22.43,25.27a6.87,6.87,0,0,0,2.08,4.45q1.65,1.41,9.58,2.51a55.1,55.1,0,0,1,5.49,1,3.94,3.94,0,0,1,1.47,3.18,2.29,2.29,0,0,1-1.1,2.19h-2.08l-6.1-.12H1147.8l-9.77.12a23,23,0,0,1-.24-2.68l.12-1.47q2.68-1.46,10-2.81a41.94,41.94,0,0,0,7.81-2.07,3.65,3.65,0,0,0,1.1-1.59c.41-1.14.69-4.39.86-9.76l.61-14.16-.25-16,.12-8.92q0-15-6.09-21.91a19.61,19.61,0,0,0-15.34-6.89,39.11,39.11,0,0,0-17.36,4.27A41.57,41.57,0,0,0,1105,116.68q-.12,3.42-.12,6.23l.49,41q.12,13.44,1.52,15.32c.94,1.27,3,2.14,6.29,2.63q7.81,1.09,10.13,2.68a2.47,2.47,0,0,1,1.1,2.2c0,.65,0,1.43-.12,2.32q-14-1-18.72-1c-3.27,0-6.2,0-8.81.13l-6.12.36h-3.8l-13.7.49a5.44,5.44,0,0,1-.24-1.41A12.59,12.59,0,0,1,1073.33,185.29Z"/>
    <path class="cls-2"
          d="M1357.88,125l-49,.36h-9.28c-3.74,0-7.57.17-11.47.51a21.7,21.7,0,0,0-1.1,5l.12,1.22v1.22l-.12,6q0,7.44,4.7,18.25A36.29,36.29,0,0,0,1305.21,174q8.73,5.67,21.79,6a45,45,0,0,0,11.11-1.71q4.14-1.35,11.71-6.23l8.79-7.2.74,4.88a15.13,15.13,0,0,1-.13,1.83,53.64,53.64,0,0,1-13.91,12.21,66.4,66.4,0,0,1-17.09,7.69q-4.15,1.1-13.67,1.1a43.72,43.72,0,0,1-17.09-3.54,41.64,41.64,0,0,1-19.6-17.27q-7.14-11.91-7.14-28.87a61.65,61.65,0,0,1,2-13.8,72.47,72.47,0,0,1,7.26-17.94,35.21,35.21,0,0,1,8.67-10.62,57.3,57.3,0,0,1,12.81-8.18,47.76,47.76,0,0,1,18.44-3.29q11.36,0,18.55,4.15a36.82,36.82,0,0,1,14.59,14.16q4.82,8.67,4.82,15.86Zm-68.11-4.39h5.73q6.23,0,37.11-2c3.26-.17,5.25-.49,6-1q2.21-2.32,2.2-4.15a19.47,19.47,0,0,0-2.44-8.61,16.84,16.84,0,0,0-7.51-7.44,25.25,25.25,0,0,0-11.78-2.63q-14.16,0-22.7,10.62Q1289.76,113.51,1289.77,120.59Z"/>
    <path class="cls-2"
          d="M1370,185.41a57.93,57.93,0,0,1,7.08-1.46q7.68-1.09,9.21-2.56t1.53-6.69l.24-4.38q.12-2.43.12-6.2l-.24-37.35c0-5-.65-8.27-2-9.74q-3.3-3.41-12.21-4.74v-4.46q8.91-2.44,13.67-6.36a43.86,43.86,0,0,0,11.72-14.94l4.15.12q.38,5.76.37,8.21v8.08l.12,2.21c1-.65,2.11-1.47,3.42-2.45a79.64,79.64,0,0,1,15-9,73.12,73.12,0,0,1,13.67-4.84,34.35,34.35,0,0,1,8.55-1,28,28,0,0,1,17.21,5.38q7.2,5.39,9.34,12.65t2.14,28.91v18.45c0,.49-.07,2.12-.19,4.89s-.18,5.95-.18,9.54c0,5.7.24,9.33.73,10.87a7.34,7.34,0,0,0,3.18,3.18q11.71,1.59,13.67,3.79v1a8.59,8.59,0,0,1-.74,3.05h-2.31l-16.12-.25-15.87.37q-8.79.24-16.23-.12l-.73-2.56a3.83,3.83,0,0,1,.85-2,29.55,29.55,0,0,1,9.28-1.95,20.61,20.61,0,0,0,4.88-.74,13.63,13.63,0,0,0,3.3-1.95,11.66,11.66,0,0,0,1.46-4.89c0-.57-.08-1.71-.24-3.43q-.37-5.61-.49-28v-6.36l.24-9.78q0-15.76-6.35-21.76t-17-6a37.93,37.93,0,0,0-16,3.6,54.28,54.28,0,0,0-15.14,10.81q-.26,5.85-.25,10l.37,27q0,21.12.61,25.87a5.36,5.36,0,0,0,.86,2.69,8.11,8.11,0,0,0,3.9,1.59c2,.4,4.21,1,6.78,1.71s4.25,1.18,5.06,1.34a4.6,4.6,0,0,1,3.3,2.44l-.12,2.44h-12.82l-26.37-.37c-6.1.09-10,.13-11.59.13h-3.06l-.24-1.59A11.43,11.43,0,0,1,1370,185.41Z"/>
    <path class="cls-2"
          d="M1527.8,68.83l3.79.12.49,11.6-.25,15c1.55.09,2.52.13,2.93.13,2.12,0,6.14-.17,12.09-.49q5.73-.37,11-.37,2.45,0,7.33.12c.16,1.63.24,2.93.24,3.91a26.73,26.73,0,0,1-.73,5h-2.08l-18.92.61-9.4.24-2.19.24a23,23,0,0,0-1,7.08l.36,18.31-.24,32.23q0,12.71,3.3,16.85t9.52,4.27q3.17,0,12-1.95,2.68-.62,7.2-4h1.1a2.3,2.3,0,0,1,2.44,2.44l-.12.85a31.73,31.73,0,0,1-12,8.37q-6.78,2.61-18,2.62-7.93,0-13.12-3.66a16.2,16.2,0,0,1-6.65-8.67q-1.47-5-1.47-21.85l.49-27.47-.12-13.18v-4.88q0-3.42-.25-6.84l-2.07-.12-10,.37-1,.12a2.88,2.88,0,0,1-2-.61,1.92,1.92,0,0,1-.67-1.47,3.23,3.23,0,0,1,.91-2.38c.61-.61,2.46-1.56,5.56-2.87a28.88,28.88,0,0,0,7.38-5.06,39.93,39.93,0,0,0,7.14-8.24,71.81,71.81,0,0,0,4.15-9.28Q1526.82,70.91,1527.8,68.83Z"/>
    <path class="cls-2"
          d="M1568.7,187.12a35.62,35.62,0,0,1,10.49-2.57q8.67-1,12.94-4.15,3.3-6.72,3.3-34.21v-19.3l.24-11.61-.24-8.55.24-15.76-.36-39.7c0-4.48-.65-7.42-2-8.8q-2.8-3-14.89-5.62-5-1.1-6.1-2a5,5,0,0,1-1.34-3.47,21.58,21.58,0,0,1,3.9-.61h8.67l4.52-.13a57.82,57.82,0,0,1,10,1q11.22.74,23.07.73c2.27,0,5.53-.12,9.76-.36q16.85-1,24.17-1A127.86,127.86,0,0,1,1683,33.92a97.77,97.77,0,0,1,27,10.86q8.67,5,17.77,15.81a78.58,78.58,0,0,1,13.79,23.56,82.84,82.84,0,0,1,4.7,28.75,81.14,81.14,0,0,1-5.19,28.32,74.7,74.7,0,0,1-14.46,24.35q-9.29,10.32-18.8,15.51t-29.06,9q-8.05,1.45-28.93,1.46-13.78,0-22.46-.85a51.19,51.19,0,0,0-7.32-.49,8.21,8.21,0,0,0-1.34.12l-49.81,1-.24-1a3.44,3.44,0,0,1-.25-1.34Zm62.13-4.89a57.59,57.59,0,0,0,18.8,3.18,77.63,77.63,0,0,0,24.17-3.85,68.51,68.51,0,0,0,20.93-10.86,66.25,66.25,0,0,0,15-15.87,73,73,0,0,0,8.3-15.93q3.42-10.38,3.42-27a84.33,84.33,0,0,0-6.72-32.22Q1710.05,68.35,1698.4,58a72.62,72.62,0,0,0-27.53-15.2,117.65,117.65,0,0,0-34.3-4.82q-12.71,0-18.8,2.81a15.13,15.13,0,0,0-1.47,1.7,24.71,24.71,0,0,0-.73,5.62q0,1.59.12,3.78.38,14.17.37,22.71l-.12,27.71q0,61,2.26,67.93T1630.83,182.23Z"/>
    <path class="cls-2"
          d="M1857.76,172.84a6.38,6.38,0,0,1,.73,2.31c0,1.23-1,3.38-2.93,6.47a26.37,26.37,0,0,1-8.42,8.92,15.15,15.15,0,0,1-8.06,1.83q-8.79,0-13.18-5.37-2.69-3.18-3.79-11.36l-13.67,9.52a55.9,55.9,0,0,1-11,5.25,58.81,58.81,0,0,1-14.65,1.59q-6.22,0-9.83-3.72a13.22,13.22,0,0,1-3.6-9.59q0-8.41,10.34-20.14t28.08-19.16q12.48-5.25,15.29-6.72.24-4,.24-8.78,0-15.51-4.34-21t-12.43-5.49q-8.44,0-15.8,6.59-4.53,4.16-6.85,15.62a26,26,0,0,1-2.81,6.84q-5.25,3.42-8.42,3.42a8.15,8.15,0,0,1-4.89-1.59,2.41,2.41,0,0,1-1.22-2q0-3.18,6.78-14.35a44.77,44.77,0,0,1,17.09-16.72q10.3-5.55,18-5.55,10.5,0,15.63,1.89a22.6,22.6,0,0,1,13.79,17q.5,2.69.49,19.16L1838,147.2l.13,14.16c0,1.87,0,3.46-.13,4.76q-.12,3.54-.12,5.25a9,9,0,0,0,2.32,6.47,7.33,7.33,0,0,0,5.49,2.44q4.65,0,7.94-4.64l1.46-1.95A11.37,11.37,0,0,1,1857.76,172.84ZM1822,169.3q.85-15.51.86-21.86c0-2.19-.13-5.16-.37-8.91a84.77,84.77,0,0,0-17.39,8.91,51.46,51.46,0,0,0-14.58,13.8q-3.91,5.61-3.92,10.62a10.61,10.61,0,0,0,3.25,7.93A11.16,11.16,0,0,0,1798,183c2.53,0,5.6-.9,9.19-2.69A61.65,61.65,0,0,0,1822,169.3Z"/>
    <path class="cls-2"
          d="M1858.25,93.25c1.79-.17,3.29-.25,4.51-.25h5.86l7.94-.24,10.37.36,8.43-.24a78.61,78.61,0,0,1,12.08.85,5.59,5.59,0,0,1,.49,2l-.12,1a24.46,24.46,0,0,1-7.94,1.71q-7.56.61-10.86,2.69l-.25,1.34a11,11,0,0,0,1,3.67c.4,1,.93,2.45,1.59,4.4q2.7,9.06,11.64,35,6.49,18.7,12,32.16,3.36-7.38,7.68-18.7l10.25-29a117.07,117.07,0,0,0,5.4-19,34.26,34.26,0,0,0,.73-6,4.75,4.75,0,0,0-1.59-3.41c-1.06-1.06-3.17-2-6.35-2.69q-8.67-2.19-9.4-2.75a3.2,3.2,0,0,1-.85-2.38,5.94,5.94,0,0,1,1.71-1h7.57l8.18.12,12.2-.12,7.81.12,2-.12a26.41,26.41,0,0,1,2.81.24,2.05,2.05,0,0,1,1.22,2,2.9,2.9,0,0,1-1.1,2.2l-2.44.37q-7.08,1-10.87,3.66-2.07,1.47-3.54,6.1a41.33,41.33,0,0,1-1.59,4.4q-.6,1.45-1.76,4.88c-.78,2.27-1.77,5-3,8l-1.46,3.41-.13.61-20.72,54.65-15.12,41.1q-1.47,3.06-3.43,7.59-4.64,8.7-5.5,9.56a33,33,0,0,1-6.35,6.37l-6.24,2.69a14.91,14.91,0,0,1-3.91.49q-5.49,0-8.06-2.4a8.54,8.54,0,0,1-2.57-6.58q0-3.93,3.79-7.13a15.55,15.55,0,0,0,2.44-1l1.59-.36q10.88,2,13.57,2a10.05,10.05,0,0,0,3.79-3.16A103,103,0,0,0,1902,212.61q4.31-10.94,4.31-14.75,0-4.16-3.24-12.09l-13.57-35.88q-2.8-7-16.75-45.41a8.88,8.88,0,0,0-2.19-3.67l-8.3-3-2.57-.49c-1.38-.56-2.07-1.38-2.07-2.44Z"/>
    <path class="cls-2"
          d="M756.29,273.88a13.39,13.39,0,0,1,1.6-.21c1.57,0,4.16.1,7.76.28,1.9.05,3.19.07,3.89.07q1.51,0,6.45-.28l11.78-.69c3.1-.28,6.7-.42,10.82-.42q10.89,0,17.33,3.08a21.68,21.68,0,0,1,10,9.66,27.61,27.61,0,0,1,3.5,13.09,26.11,26.11,0,0,1-7.62,18.77q-7.63,7.89-20.53,7.89a17.74,17.74,0,0,1-11.58-3.54,3.65,3.65,0,0,1-1.59-1.87,1.59,1.59,0,0,1,.76-.69,5.51,5.51,0,0,1,2,.41,18,18,0,0,0,6,.84,21.11,21.11,0,0,0,10.36-2.7,17.6,17.6,0,0,0,7.39-7.69A23.23,23.23,0,0,0,817,299.36a23.59,23.59,0,0,0-9.55-18.62,21.51,21.51,0,0,0-7.44-2.91,37,37,0,0,0-7.78-1.18q-8.58,0-10.17,1.25l-.07,1,.21,7.83-.07,1.38c-.1,1.25-.14,3.17-.14,5.75q0,14.15.41,17.6v3.88l.9,31.66c0,.46-.05,1.32-.17,2.57s-.17,2.33-.17,3.25a17.6,17.6,0,0,0,.55,5.06q1.66.48,9.71,2.28c2.5.61,3.86.95,4.09,1a2,2,0,0,1,1,.91,2.34,2.34,0,0,1-.73,1.35,3.38,3.38,0,0,1-1.76.31c-.56,0-1.85-.12-3.89-.35q-6-.61-9.36-.62l-12.2.48-7.28-.2c-.46,0-1.8,0-4,.13l-.07-1.8,9-1.73a5.84,5.84,0,0,0,2.71-1.25,7.15,7.15,0,0,0,.69-3.81c0-.41,0-1.31.07-2.7,0-1,.07-2.31.07-4q0-8.17-.7-34.85-.27-12.47-.27-25.35v-1.18c0-3.32-.51-5.43-1.53-6.3q-2.56-2.29-12.83-3.74a3.22,3.22,0,0,1-.34-1.25A3,3,0,0,1,756.29,273.88Z"/>
    <path class="cls-2"
          d="M836,362.56l-.28-.9a3.2,3.2,0,0,1,.63-1.46l4.09-.83,5.75-1a2,2,0,0,0,1-1c.28-.6.42-2.38.42-5.33q0-23.54-.28-27.17c-.18-2.43-.6-4-1.25-4.61s-2.31-1.15-5-1.52a16.94,16.94,0,0,1-3.74-.9l.28-2.12q7.28-3,9.77-5.14a26,26,0,0,0,5.9-8.2l2.35.07q.42,3.46.42,15.39l-.07,1.18a10.08,10.08,0,0,0,.14,1.31,40,40,0,0,1,6.59-8.8l1.59-1.6a11.15,11.15,0,0,1,1.87-1.73q4.86-2.91,7.21-2.91a6.6,6.6,0,0,1,5,2,7.06,7.06,0,0,1,1.94,5,4.86,4.86,0,0,1-1.39,3.68,6.17,6.17,0,0,1-4.3,1.73,16.48,16.48,0,0,1-4.37-1.18,17,17,0,0,0-4.3-1.18,4.35,4.35,0,0,0-2.7.63c-1.29,1-2.87,3.09-4.71,6.24a12.66,12.66,0,0,0-2.15,6.51l.34,11.47.14,13.76a10.23,10.23,0,0,0,.56,3.06,4.24,4.24,0,0,0,1.38,1.18c5,.41,8,.72,8.88.9.64,0,1.13.09,1.45.14a8.53,8.53,0,0,1,4.16.83,1.13,1.13,0,0,1,.63,1,2,2,0,0,1-.56,1.11l-7.69-.14-2.92-.06-4.22.06h-7.08l-3.81.21Z"/>
    <path class="cls-2"
          d="M936.84,352.92a3.63,3.63,0,0,1,.42,1.32c0,.69-.55,1.92-1.66,3.68a15,15,0,0,1-4.79,5.06,8.61,8.61,0,0,1-4.57,1q-5,0-7.49-3c-1-1.21-1.74-3.35-2.15-6.45l-7.77,5.41a32.38,32.38,0,0,1-6.24,3,33.45,33.45,0,0,1-8.32.9,7.39,7.39,0,0,1-5.58-2.12,7.51,7.51,0,0,1-2-5.44q0-4.78,5.87-11.44t16-10.89q7.08-3,8.68-3.81c.1-1.52.14-3.19.14-5q0-8.81-2.47-11.93a8.47,8.47,0,0,0-7.06-3.12,13.2,13.2,0,0,0-9,3.75q-2.56,2.35-3.89,8.87a14.64,14.64,0,0,1-1.6,3.89q-3,1.94-4.78,1.94a4.66,4.66,0,0,1-2.78-.9,1.38,1.38,0,0,1-.69-1.11q0-1.81,3.85-8.15a25.38,25.38,0,0,1,9.71-9.5q5.85-3.15,10.22-3.15a27.26,27.26,0,0,1,8.88,1.07,12.84,12.84,0,0,1,7.83,9.67,106.4,106.4,0,0,1,.28,10.89l-.21,11,.07,8.05c0,1.06,0,2-.07,2.7,0,1.34-.07,2.33-.07,3a5.12,5.12,0,0,0,1.32,3.68,4.18,4.18,0,0,0,3.12,1.38,5.43,5.43,0,0,0,4.51-2.63l.83-1.11A6.59,6.59,0,0,1,936.84,352.92Zm-20.31-2q.48-8.81.48-12.41c0-1.25-.06-2.93-.2-5.06a47.8,47.8,0,0,0-9.88,5.06,29.31,29.31,0,0,0-8.28,7.84,10.61,10.61,0,0,0-2.23,6,6,6,0,0,0,1.85,4.5,6.3,6.3,0,0,0,4.62,1.81,12.16,12.16,0,0,0,5.22-1.53A34.79,34.79,0,0,0,916.53,350.91Z"/>
    <path class="cls-2"
          d="M993.56,349.66l.07,4.51a33.12,33.12,0,0,1-10.68,8,30.89,30.89,0,0,1-12.41,2.29,25.14,25.14,0,0,1-14-4.05A26.21,26.21,0,0,1,946.93,349a35.11,35.11,0,0,1-3.36-14.56,28.89,28.89,0,0,1,4.06-14.8,26.06,26.06,0,0,1,10.74-10.4q6.69-3.43,16.82-3.44,9.7,0,14.77,3.33a5.85,5.85,0,0,1,2.84,5,5,5,0,0,1-1.46,3.68,5.07,5.07,0,0,1-3.74,1.46c-2.31,0-4.85-1.44-7.63-4.3a17.61,17.61,0,0,0-4.64-3.64,10.57,10.57,0,0,0-4.65-1,12.69,12.69,0,0,0-10.26,5.06q-5.68,7.21-5.69,18.1,0,11.24,5.83,17.89T974.15,358a24.53,24.53,0,0,0,9.6-1.76A40.06,40.06,0,0,0,993.56,349.66Z"/>
    <path class="cls-2"
          d="M1017.14,293.85l2.15.07.27,6.58-.14,8.53c.88.05,1.44.07,1.67.07q1.8,0,6.86-.27,3.25-.21,6.24-.21c.93,0,2.31,0,4.16.07.09.92.14,1.66.14,2.22a15.73,15.73,0,0,1-.41,2.84h-1.18l-10.75.34-5.34.14-1.25.14a13.25,13.25,0,0,0-.55,4l.21,10.4-.14,18.31q0,7.22,1.87,9.57a6.29,6.29,0,0,0,5.41,2.42,38.5,38.5,0,0,0,6.79-1.11,12.11,12.11,0,0,0,4.09-2.28h.63a1.31,1.31,0,0,1,1.38,1.38l-.07.49a18,18,0,0,1-6.83,4.75,28.94,28.94,0,0,1-10.22,1.49,12.61,12.61,0,0,1-7.46-2.08,9.24,9.24,0,0,1-3.77-4.92q-.84-2.85-.84-12.42l.28-15.6-.07-7.48v-2.78c0-1.29,0-2.59-.14-3.88l-1.18-.07-5.68.21-.56.07a1.64,1.64,0,0,1-1.14-.35,1.1,1.1,0,0,1-.38-.83,1.79,1.79,0,0,1,.52-1.35,12.91,12.91,0,0,1,3.15-1.63,16.6,16.6,0,0,0,4.2-2.88,22.93,22.93,0,0,0,4.05-4.68,40.27,40.27,0,0,0,2.36-5.27C1016.21,296,1016.76,294.64,1017.14,293.85Z"/>
    <path class="cls-2"
          d="M1042.72,313.12l.07-2q4.5-1.32,4.85-1.53a22.67,22.67,0,0,0,5.24-3.41,23.84,23.84,0,0,0,4.61-5.15,8.72,8.72,0,0,1,1.32-.14l.83.07c.18,2.22.28,3.84.28,4.85,0,.24-.05,1.28-.14,3.12v3.68l.07,20-.21,21.15a5.17,5.17,0,0,0,.83,3.57q.9,1,5.34,2.25a42.78,42.78,0,0,1,4.16,1.32,2.15,2.15,0,0,1,.21.83,2.3,2.3,0,0,1-.35,1c-1.8-.05-4.11-.16-6.93-.35q-5.76-.48-7.63-.48-.9,0-11.09.34a39.29,39.29,0,0,0-4,.35,4.62,4.62,0,0,1-1.11-.21,1.46,1.46,0,0,1-.35-.83c0-.65.44-1.15,1.32-1.52q.27-.15,7.07-1.6A4.45,4.45,0,0,0,1050,357a7.34,7.34,0,0,0,1.18-4.64q.13-5.33.14-29.22a24.2,24.2,0,0,0-.42-6,5.27,5.27,0,0,0-1.84-1.91C1048.07,314.59,1046,313.86,1042.72,313.12Zm5.82-36a5.23,5.23,0,0,1,1.77-3.95,6,6,0,0,1,4.27-1.67,6.3,6.3,0,0,1,4.5,1.87,5.55,5.55,0,0,1,2,4,5.64,5.64,0,0,1-2,4.05,6.22,6.22,0,0,1-4.5,1.91,5.85,5.85,0,0,1-4.3-1.73A6.1,6.1,0,0,1,1048.54,277.14Z"/>
    <path class="cls-2"
          d="M1126.62,349.66l.07,4.51a33.33,33.33,0,0,1-10.68,8,30.89,30.89,0,0,1-12.41,2.29,25.18,25.18,0,0,1-14-4.05A26.19,26.19,0,0,1,1080,349a35.11,35.11,0,0,1-3.36-14.56,29,29,0,0,1,4-14.8,26.14,26.14,0,0,1,10.75-10.4q6.69-3.43,16.81-3.44,9.71,0,14.77,3.33a5.83,5.83,0,0,1,2.84,5,5,5,0,0,1-1.45,3.68,5.08,5.08,0,0,1-3.75,1.46c-2.31,0-4.85-1.44-7.62-4.3a17.47,17.47,0,0,0-4.65-3.64,10.5,10.5,0,0,0-4.64-1,12.69,12.69,0,0,0-10.27,5.06q-5.68,7.21-5.68,18.1,0,11.24,5.82,17.89T1107.2,358a24.55,24.55,0,0,0,9.61-1.76A40.44,40.44,0,0,0,1126.62,349.66Z"/>
    <path class="cls-2"
          d="M1185.28,325.74l-27.81.21h-5.27c-2.12,0-4.3.1-6.52.29a12.49,12.49,0,0,0-.62,2.84l.07.69v.7l-.07,3.4q0,4.23,2.67,10.36a20.59,20.59,0,0,0,7.63,9.36,23.49,23.49,0,0,0,12.37,3.43,25.46,25.46,0,0,0,6.31-1,31.53,31.53,0,0,0,6.66-3.53l5-4.09.42,2.77a9.9,9.9,0,0,1-.07,1,30.41,30.41,0,0,1-7.91,6.93,37.43,37.43,0,0,1-9.7,4.37,33.61,33.61,0,0,1-7.77.63,24.71,24.71,0,0,1-9.71-2,23.58,23.58,0,0,1-11.12-9.81q-4.07-6.75-4.06-16.39a35.28,35.28,0,0,1,1.14-7.84,41.31,41.31,0,0,1,4.13-10.19,19.94,19.94,0,0,1,4.92-6,32.77,32.77,0,0,1,7.28-4.65,27.14,27.14,0,0,1,10.47-1.87,20.58,20.58,0,0,1,18.83,10.4,18.9,18.9,0,0,1,2.74,9Zm-38.69-2.49h3.25q3.54,0,21.08-1.11a8.67,8.67,0,0,0,3.4-.56,3.68,3.68,0,0,0,1.25-2.35,11,11,0,0,0-1.39-4.89,9.53,9.53,0,0,0-4.26-4.23,14.28,14.28,0,0,0-6.69-1.49,15.71,15.71,0,0,0-12.9,6Q1146.58,319.23,1146.59,323.25Z"/>
    <path class="cls-2"
          d="M1227.5,284l2.84-10.47a6,6,0,0,1,.77-2.67,1.42,1.42,0,0,1,1.11-.59c.83,0,1.77,1,2.84,3A9.6,9.6,0,0,0,1237,276a4.76,4.76,0,0,0,2.22.79l.69-.07,3,.28,16.37.21,19.34-.07h5.69l10.74-.2a13.85,13.85,0,0,1,1.74.13q4.71.42,5.82.42a2.14,2.14,0,0,0,1.67-.69c.13-.18.9-1.7,2.28-4.57.6-1.3,1.34-2,2.22-2a4.78,4.78,0,0,1,1.39.28,10.32,10.32,0,0,1,.35,2.48l-.07,2.75.07,5.85q0,2.13-.35,13.76a3.23,3.23,0,0,1-.28,1.37,2.54,2.54,0,0,1-1.32.49,1.21,1.21,0,0,1-1-.52,11.19,11.19,0,0,1-1-3.19q-1.38-6.19-3.46-8.87a7.78,7.78,0,0,0-4-2.48q-2.6-.75-12.45-.75h-11.71c-.1,1.85-.14,3.54-.14,5.06l.55,43.1q0,2.56-.27,9.71l.06,9.23-.06,5.14a5.58,5.58,0,0,0,.83,3.47q.82,1,4.5,2c4.26,1.07,7.1,1.71,8.53,1.94a6.39,6.39,0,0,1,2.15.56v2.08l-9.84-.25q-8.12-.06-12.21-.31l-10.12.49-7.42.42a29.18,29.18,0,0,1-3.81-.14l-1-.42a3.34,3.34,0,0,1,.62-2,5.47,5.47,0,0,1,2.57-.73,59.66,59.66,0,0,0,6.86-1.49q4-1.08,5.2-2.19a3.62,3.62,0,0,0,1-2.08q.63-3,.63-12V331.22l-.28-25.72L1263,300l-.07-18.51h-11.16q-10,0-12.14,1.21-3.39,1.88-10.12,11c-1.48,2.28-2.77,3.43-3.88,3.43L1225,297a1.43,1.43,0,0,1-.27-.76,32.09,32.09,0,0,1,1.11-5C1226.76,287.66,1227.32,285.25,1227.5,284Z"/>
    <path class="cls-2"
          d="M1359.24,325.74l-27.8.21h-5.27q-3.2,0-6.52.29a12.13,12.13,0,0,0-.63,2.84l.07.69v.7l-.07,3.4q0,4.23,2.67,10.36a20.65,20.65,0,0,0,7.63,9.36A23.5,23.5,0,0,0,1341.7,357a25.62,25.62,0,0,0,6.31-1,31.27,31.27,0,0,0,6.65-3.53l5-4.09.41,2.77a7.78,7.78,0,0,1-.07,1,30.36,30.36,0,0,1-7.9,6.93,37.49,37.49,0,0,1-9.71,4.37,33.55,33.55,0,0,1-7.77.63,24.67,24.67,0,0,1-9.7-2,23.55,23.55,0,0,1-11.13-9.81q-4.07-6.75-4.06-16.39a34.8,34.8,0,0,1,1.15-7.84,40.87,40.87,0,0,1,4.12-10.19,19.82,19.82,0,0,1,4.93-6,32.55,32.55,0,0,1,7.28-4.65,27.07,27.07,0,0,1,10.47-1.87,20.58,20.58,0,0,1,18.82,10.4,18.78,18.78,0,0,1,2.74,9Zm-38.69-2.49h3.26q3.54,0,21.08-1.11a8.6,8.6,0,0,0,3.39-.56,3.64,3.64,0,0,0,1.25-2.35,11.06,11.06,0,0,0-1.38-4.89,9.55,9.55,0,0,0-4.27-4.23,14.28,14.28,0,0,0-6.69-1.49,15.74,15.74,0,0,0-12.9,6Q1320.55,319.23,1320.55,323.25Z"/>
    <path class="cls-2"
          d="M1373.45,344.74a51.74,51.74,0,0,0,3.89,8.53,19.61,19.61,0,0,0,6.31,6.14,15.33,15.33,0,0,0,8,2.18q3.95,0,7.83-3.4a7.89,7.89,0,0,0,2.78-6,12.56,12.56,0,0,0-3.26-8.32q-3.27-3.75-12.38-7.18t-12.24-7.31a13.79,13.79,0,0,1-3.12-8.88,14,14,0,0,1,2.57-8.32,15.72,15.72,0,0,1,7.07-5.44,22.33,22.33,0,0,1,8.32-1.84,46.33,46.33,0,0,1,8.84.77,22.39,22.39,0,0,1,6.76,2.35q.56,3.54.9,10.4l.14,2.22c-.6.05-1.11.07-1.52.07h-1a20,20,0,0,0-6.35-9.12,13.65,13.65,0,0,0-8.42-3.36,9.15,9.15,0,0,0-6.73,2.53,8.9,8.9,0,0,0-2.56,6.62,8.28,8.28,0,0,0,2.08,5.55q2.07,2.43,9.74,5.53a50.53,50.53,0,0,1,11.16,5.78,16.18,16.18,0,0,1,5.17,6.49,18.19,18.19,0,0,1,1.66,7.29,14.56,14.56,0,0,1-3.15,8.95,16.94,16.94,0,0,1-7.91,5.86,25.58,25.58,0,0,1-8.49,1.7,39.82,39.82,0,0,1-16.23-3.26,2.74,2.74,0,0,1-.76-2.08c0-.41,0-1.08-.14-2q-1.11-9.36-1.11-11.09a1.37,1.37,0,0,1,.35-1.11A3.43,3.43,0,0,1,1373.45,344.74Z"/>
    <path class="cls-2"
          d="M1435.09,293.85l2.15.07.28,6.58-.14,8.53c.88.05,1.43.07,1.66.07,1.21,0,3.49-.09,6.87-.27q3.25-.21,6.24-.21c.92,0,2.31,0,4.16.07.09.92.14,1.66.14,2.22a15.08,15.08,0,0,1-.42,2.84h-1.18l-10.74.34-5.34.14-1.25.14a13.23,13.23,0,0,0-.56,4l.21,10.4L1437,347.1q0,7.22,1.88,9.57a6.28,6.28,0,0,0,5.4,2.42,38.42,38.42,0,0,0,6.8-1.11,12.2,12.2,0,0,0,4.09-2.28h.62a1.33,1.33,0,0,1,1,.38,1.37,1.37,0,0,1,.38,1l-.07.49a18.1,18.1,0,0,1-6.83,4.75,29,29,0,0,1-10.23,1.49,12.6,12.6,0,0,1-7.45-2.08,9.31,9.31,0,0,1-3.78-4.92q-.82-2.85-.83-12.42l.28-15.6-.07-7.48v-2.78c0-1.29,0-2.59-.14-3.88l-1.18-.07-5.68.21-.56.07a1.64,1.64,0,0,1-1.14-.35,1.07,1.07,0,0,1-.38-.83,1.82,1.82,0,0,1,.51-1.35,12.84,12.84,0,0,1,3.16-1.63,16.4,16.4,0,0,0,4.19-2.88,22.68,22.68,0,0,0,4.06-4.68,40.27,40.27,0,0,0,2.36-5.27C1434.17,296,1434.72,294.64,1435.09,293.85Z"/>
    <path class="cls-2"
          d="M1495.62,361.29a3.39,3.39,0,0,1,1.18-.74,21.94,21.94,0,0,1,4-.56q6.73-.4,8.32-1.25a6.68,6.68,0,0,0,1-3.89L1510,350l.07-17.64L1510,324l.06-17.43-.34-19.8q-.08-7.08-.9-8-1.26-1.31-7.42-1.52a33.38,33.38,0,0,1-4.65-.42,1.42,1.42,0,0,1-.9-1.25,3.29,3.29,0,0,1,.35-1.31,2.33,2.33,0,0,1,1.11-.35c.64,0,1.43,0,2.35.07a83,83,0,0,0,8.46.41l5.13-.13,12.21.27q9.15,0,14.28-.2t6.93-.21c1.07,0,3.7.09,7.91.27l9.84-.06,1.18.2,5.76-.2.69.34a3.93,3.93,0,0,1,.49,1.18,21.49,21.49,0,0,1-.32,3c-.2,1.34-.31,2.18-.31,2.5q0,7.22.49,12.2a.68.68,0,0,1-.41.56,4.17,4.17,0,0,1-1.36-.21,37.53,37.53,0,0,1-2-4.65,53.26,53.26,0,0,0-3.85-7.69,10.81,10.81,0,0,0-2.7-3.47,9.42,9.42,0,0,0-4-.56c-.41,0-2.52,0-6.31-.13-1-.05-2-.07-3-.07l-19.77.41h-1.74c-2.54,0-4.07.33-4.57,1q-1.18,1.66-1.18,9.78,0,.83.34,16.64v9.64a6.31,6.31,0,0,0,1.67.21h1.18c.78,0,1.94,0,3.46.07,2.4.09,4,.13,4.86.13a12.34,12.34,0,0,0,1.45-.07q7.48-.27,19.28-.27c2.45-.42,3.88-.9,4.3-1.46q1-1.25,1.56-6.52c.34-3.51,1.12-5.5,2.32-6a4,4,0,0,1,1.66.35,4.45,4.45,0,0,1,.14,1,15.45,15.45,0,0,1-.14,1.59q-.35,2.57-.34,16.09c0,2.4.12,5.08.38,8s.38,4.55.38,4.79a8.86,8.86,0,0,1-.21,1.66,2.1,2.1,0,0,1-.9.28h-.49a26,26,0,0,1-2.15-6q-1.8-7-3.77-8.77t-6.42-1.76c-.65,0-1.82,0-3.53.1s-4.26.1-7.63.1h-4.51a115.93,115.93,0,0,0-12.62.42l-.07,2.29.07,12.78-.07,8.06.07,7.85q.07,7.08.9,8.19,1.19,1.53,5.14,1.53l4.22-.07,4.34.1q3.78.1,9.32.11,13.4,0,17.82-1.15a15.41,15.41,0,0,0,7.32-4.07q2.88-2.93,7.24-12.59,1.32-2.85,2.64-2.85a2.45,2.45,0,0,1,1.39.55,74.7,74.7,0,0,0-2.29,9,77,77,0,0,0-.9,9.92,6.28,6.28,0,0,1-1.11,3.81h-1.53l-19.48.21-8.74-.07-20.8.28h-8.46c-1.06,0-2.06,0-3,.07q-12.48.56-18.37.55a2.27,2.27,0,0,1-1.43-.33,1.32,1.32,0,0,1-.38-1Z"/>
    <path class="cls-2"
          d="M1587.42,310.49a11.09,11.09,0,0,1-.13-1.57V308a9.63,9.63,0,0,1,2.42-.28h2.57q6,.19,7.49.2c3.18,0,6.42,0,9.7-.13,2-.05,3.28-.07,3.75-.07h1.66a3.78,3.78,0,0,1,.49,1.45,2.71,2.71,0,0,1-.28,1l-1,.14c-3.36.33-5.47.75-6.35,1.26a1.05,1.05,0,0,0-.55.92,6.52,6.52,0,0,0,1.66,3.29q8.07,10.53,11,13.58,6.57-8.73,7.83-11.21a9.38,9.38,0,0,0,1.27-3.86,3.43,3.43,0,0,0-1.25-2.69c-.83-.72-2.87-1.31-6.1-1.77a2.74,2.74,0,0,1-.56-1.39l.21-.69,1.8-.07c.46,0,1.27,0,2.43.07,2,.13,4,.2,6,.2,1,0,2.78,0,5.27-.1s4.39-.1,5.69-.1h3.19q.9.4.9,1.11a4.05,4.05,0,0,1-.14.9c-.74.18-1.64.37-2.7.55a18.19,18.19,0,0,0-12.48,7.83l-9.8,13.28,10,12.61q6.9,9.35,8.46,11a14.65,14.65,0,0,0,3.38,2.7,22.08,22.08,0,0,0,5.28,1.94c0,.55.07,1,.07,1.45a4.27,4.27,0,0,1-.28,1.32q-1.24,0-12.65-.34c-.46,0-2.69,0-6.67.13-1.26.05-2.46.07-3.62.07s-2.39,0-4-.14l.21-2.08c.69-.13,1.46-.3,2.3-.48a12.48,12.48,0,0,0,5.08-1.87,2.16,2.16,0,0,0,.91-1.66q0-1.53-9.36-12.8l-4-4.88a54.65,54.65,0,0,0-6.5,8.25,52.4,52.4,0,0,1-3.29,4.65c-1.57,1.83-2.35,3.37-2.35,4.6a1.72,1.72,0,0,0,.83,1.27c.55.44,2.17.95,4.85,1.55,1.8.36,3.07.66,3.81.89A7,7,0,0,1,1614,361a10.52,10.52,0,0,1-.14,1.35q-5.34-.27-10.4-.27c-4.25,0-7.34.05-9.26.17s-3.1.17-3.57.17-1.43,0-2.63-.14a5.62,5.62,0,0,1-.28-1.45l.14-.9a7,7,0,0,1,2.43-.63,15.13,15.13,0,0,0,8.25-3.46q3.6-3,16-19.81l-9.24-11.13-9.77-11.78a7.27,7.27,0,0,0-1-.83,9.73,9.73,0,0,0-3-1C1589.55,311,1588.21,310.67,1587.42,310.49Z"/>
    <path class="cls-2"
          d="M1652.11,398.61c0-.52-.07-1-.07-1.42a6.7,6.7,0,0,1,.14-1.21l7-1.39a8.82,8.82,0,0,0,2.72-2,9.42,9.42,0,0,0,.35-2.5q0-10.66-.56-40.66l-.21-25.36q-.13-6-.76-7.62a3,3,0,0,0-1-1.32c-1.15-.88-3.47-1.61-6.93-2.21l.41-2.12a63.47,63.47,0,0,0,10-5,20.52,20.52,0,0,0,4.82-5l.83-.21a3.62,3.62,0,0,1,1.39.42c0,2.91-.07,4.83-.07,5.75l.07,7.63a38.24,38.24,0,0,1,10.68-5.79,35.17,35.17,0,0,1,11.51-1.9,24.21,24.21,0,0,1,18,7.52q7.35,7.51,7.35,19.38a30.48,30.48,0,0,1-4.14,15.81,25.93,25.93,0,0,1-11.38,10.47,33.64,33.64,0,0,1-14.62,3.46q-6.26,0-14.31-3.39c-.88-.37-1.66-.7-2.36-1q-.13,5.57-.14,9.87,0,21.47,1.19,24c.42.92,1.72,1.48,3.9,1.66q5.58.42,7.39,1.6a3.46,3.46,0,0,1,1.39,2.49l-6.88.14-6.25-.14-10.42.07Zm18.17-79.38a13,13,0,0,0-.14,1.8q0,24.75.49,27.73c.64,3.66,1.94,6.22,3.88,7.7q4.5,3.54,12.9,3.54a19.85,19.85,0,0,0,14.63-6q6-6,6-15.57,0-11.51-6.31-18.23t-16.64-6.73a22.23,22.23,0,0,0-8,1.42A20.21,20.21,0,0,0,1670.28,319.23Z"/>
    <path class="cls-2"
          d="M1777.82,325.74,1750,326h-5.27q-3.2,0-6.52.29a11.94,11.94,0,0,0-.62,2.84l.06.69v.7l-.06,3.4q0,4.23,2.67,10.36a20.57,20.57,0,0,0,7.62,9.36,23.53,23.53,0,0,0,12.38,3.43,25.54,25.54,0,0,0,6.31-1,31.27,31.27,0,0,0,6.65-3.53l5-4.09.41,2.77a7.78,7.78,0,0,1-.07,1,30.36,30.36,0,0,1-7.9,6.93,37.49,37.49,0,0,1-9.71,4.37,33.51,33.51,0,0,1-7.76.63,24.68,24.68,0,0,1-9.71-2,23.55,23.55,0,0,1-11.13-9.81q-4-6.75-4.06-16.39a35.39,35.39,0,0,1,1.15-7.84,41.25,41.25,0,0,1,4.12-10.19,20,20,0,0,1,4.93-6,32.55,32.55,0,0,1,7.28-4.65,27.07,27.07,0,0,1,10.47-1.87,20.56,20.56,0,0,1,18.82,10.4,18.78,18.78,0,0,1,2.74,9Zm-38.69-2.49h3.26q3.54,0,21.08-1.11a8.67,8.67,0,0,0,3.4-.56,3.66,3.66,0,0,0,1.24-2.35,11.06,11.06,0,0,0-1.38-4.89,9.55,9.55,0,0,0-4.27-4.23,14.28,14.28,0,0,0-6.69-1.49,15.74,15.74,0,0,0-12.9,6Q1739.14,319.23,1739.13,323.25Z"/>
    <path class="cls-2"
          d="M1784.89,362.56l-.27-.9a3.15,3.15,0,0,1,.62-1.46l4.09-.83,5.75-1a2,2,0,0,0,1-1c.27-.6.41-2.38.41-5.33q0-23.54-.28-27.17c-.18-2.43-.6-4-1.24-4.61s-2.32-1.15-5-1.52a16.94,16.94,0,0,1-3.74-.9l.28-2.12q7.27-3,9.77-5.14a26,26,0,0,0,5.9-8.2l2.35.07q.42,3.46.42,15.39l-.07,1.18a10.08,10.08,0,0,0,.14,1.31,40.31,40.31,0,0,1,6.59-8.8l1.59-1.6a11.15,11.15,0,0,1,1.87-1.73q4.86-2.91,7.21-2.91a6.6,6.6,0,0,1,5,2,7.06,7.06,0,0,1,1.94,5,4.82,4.82,0,0,1-1.39,3.68,6.17,6.17,0,0,1-4.3,1.73,16.48,16.48,0,0,1-4.37-1.18,17,17,0,0,0-4.29-1.18,4.36,4.36,0,0,0-2.71.63q-1.94,1.51-4.71,6.24a12.66,12.66,0,0,0-2.15,6.51l.34,11.47.14,13.76a10.58,10.58,0,0,0,.56,3.06,4.24,4.24,0,0,0,1.38,1.18c5,.41,8,.72,8.88.9.65,0,1.13.09,1.46.14a8.59,8.59,0,0,1,4.16.83,1.14,1.14,0,0,1,.62,1,2,2,0,0,1-.56,1.11l-7.69-.14-2.91-.06-4.23.06h-7.08l-3.81.21Z"/>
    <path class="cls-2"
          d="M1852.08,293.85l2.15.07.28,6.58-.14,8.53c.88.05,1.43.07,1.66.07q1.8,0,6.87-.27,3.25-.21,6.24-.21c.92,0,2.31,0,4.16.07.09.92.13,1.66.13,2.22a14.86,14.86,0,0,1-.41,2.84h-1.18l-10.75.34-5.34.14-1.24.14a13.23,13.23,0,0,0-.56,4l.21,10.4L1854,347.1q0,7.22,1.87,9.57a6.3,6.3,0,0,0,5.41,2.42,38.56,38.56,0,0,0,6.8-1.11,12.2,12.2,0,0,0,4.09-2.28h.62a1.35,1.35,0,0,1,1,.38,1.37,1.37,0,0,1,.38,1l-.07.49a18.18,18.18,0,0,1-6.83,4.75,29,29,0,0,1-10.23,1.49,12.58,12.58,0,0,1-7.45-2.08,9.21,9.21,0,0,1-3.78-4.92q-.84-2.85-.83-12.42l.27-15.6-.07-7.48v-2.78c0-1.29,0-2.59-.13-3.88l-1.18-.07-5.69.21-.55.07a1.68,1.68,0,0,1-1.15-.35,1.1,1.1,0,0,1-.38-.83,1.83,1.83,0,0,1,.52-1.35,12.84,12.84,0,0,1,3.16-1.63,16.4,16.4,0,0,0,4.19-2.88,22.68,22.68,0,0,0,4.06-4.68,40.62,40.62,0,0,0,2.35-5.27C1851.15,296,1851.71,294.64,1852.08,293.85Z"/>
    <path class="cls-2"
          d="M1883.63,344.74a52,52,0,0,0,3.88,8.53,19.81,19.81,0,0,0,6.31,6.14,15.39,15.39,0,0,0,8,2.18q4,0,7.84-3.4a7.88,7.88,0,0,0,2.77-6,12.56,12.56,0,0,0-3.26-8.32q-3.26-3.75-12.37-7.18t-12.24-7.31a13.79,13.79,0,0,1-3.12-8.88,14,14,0,0,1,2.56-8.32,15.69,15.69,0,0,1,7.08-5.44,22.24,22.24,0,0,1,8.32-1.84,46.41,46.41,0,0,1,8.84.77,22.49,22.49,0,0,1,6.76,2.35q.55,3.54.9,10.4l.14,2.22c-.6.05-1.11.07-1.53.07h-1a20,20,0,0,0-6.34-9.12,13.68,13.68,0,0,0-8.43-3.36,9.14,9.14,0,0,0-6.72,2.53,8.91,8.91,0,0,0-2.57,6.62,8.28,8.28,0,0,0,2.08,5.55q2.09,2.43,9.74,5.53a50.88,50.88,0,0,1,11.17,5.78,16.24,16.24,0,0,1,5.16,6.49,18.21,18.21,0,0,1,1.67,7.29,14.58,14.58,0,0,1-3.16,8.95,16.91,16.91,0,0,1-7.9,5.86,25.68,25.68,0,0,1-8.5,1.7,39.74,39.74,0,0,1-16.22-3.26,2.7,2.7,0,0,1-.76-2.08c0-.41,0-1.08-.14-2q-1.11-9.36-1.11-11.09a1.37,1.37,0,0,1,.34-1.11A3.48,3.48,0,0,1,1883.63,344.74Z"/>
</svg>