<?xml version="1.0" encoding="utf-8"?>
<!-- Generator: Adobe Illustrator 23.0.3, SVG Export Plug-In . SVG Version: 6.00 Build 0)  -->
<svg version="1.1" id="Layer_1" xmlns="http://www.w3.org/2000/svg" xmlns:xlink="http://www.w3.org/1999/xlink" x="0px" y="0px"
	 width="120.07px" height="120.07px" viewBox="0 0 120.07 120.07" enable-background="new 0 0 120.07 120.07" xml:space="preserve">
<path fill="#40BA8D" d="M120.07,105.9c0,7.83-6.35,14.17-14.17,14.17H14.17C6.35,120.07,0,113.72,0,105.9V14.17
	C0,6.35,6.35,0,14.17,0h91.72c7.83,0,14.17,6.35,14.17,14.17V105.9z"/>
<g>
	<path fill="#FFFFFF" d="M19.18,95.44c0,1.17-2.23,3.21-5.66,3.21c-3.87,0-6.31-2.37-6.31-5.99v-4.93c0-3.61,2.45-5.95,6.31-5.95
		c3.39,0,5.69,1.93,5.69,3.14c0,0.11-0.11,0.22-0.26,0.29l-1.53,0.77c-0.07,0.04-0.11,0.04-0.15,0.04c-0.11,0-0.18-0.04-0.29-0.15
		c-1.1-1.02-1.82-2.01-3.47-2.01c-2.23,0-3.87,1.71-3.87,3.87v4.93c0,2.12,1.68,3.91,3.87,3.91c0.88,0,1.75-0.37,2.41-0.99
		c0.77-0.73,1.1-1.24,1.31-1.24c0.04,0,0.11,0,0.18,0.04l1.53,0.77C19.14,95.22,19.18,95.29,19.18,95.44z"/>
	<path fill="#FFFFFF" d="M28.63,98.65c-3.87,0-6.31-2.37-6.31-5.99v-4.93c0-3.61,2.45-5.95,6.31-5.95c3.87,0,6.39,2.41,6.39,5.95
		v4.93C35.02,96.24,32.5,98.65,28.63,98.65z M32.54,87.74c0-2.08-1.72-3.87-3.91-3.87c-2.23,0-3.87,1.71-3.87,3.87v4.93
		c0,2.12,1.68,3.91,3.87,3.91c2.19,0,3.91-1.79,3.91-3.91V87.74z"/>
	<path fill="#FFFFFF" d="M51.41,98.28h-1.75c-0.26,0-0.36-0.11-0.36-0.36V88.1c0-2.08-1.72-3.87-3.91-3.87
		c-2.23,0-3.87,1.72-3.87,3.87v9.82c0,0.25-0.11,0.36-0.36,0.36h-1.75c-0.26,0-0.37-0.11-0.37-0.36v-15.4
		c0-0.25,0.11-0.36,0.37-0.36h1.35c0.26,0,0.36,0.11,0.36,0.36v1.46c0,0.22,0.15,0.4,0.29,0.4c0.26,0,0.55-0.36,1.1-0.84
		c0.84-0.69,1.46-1.39,3.21-1.39c3.39,0,6.06,2.45,6.06,5.95v9.82C51.78,98.17,51.67,98.28,51.41,98.28z"/>
	<path fill="#FFFFFF" d="M69.3,98.28h-1.75c-0.25,0-0.36-0.11-0.36-0.36V88.1c0-2.08-1.72-3.87-3.91-3.87
		c-2.23,0-3.87,1.72-3.87,3.87v9.82c0,0.25-0.11,0.36-0.36,0.36h-1.75c-0.26,0-0.37-0.11-0.37-0.36v-15.4
		c0-0.25,0.11-0.36,0.37-0.36h1.35c0.26,0,0.36,0.11,0.36,0.36v1.46c0,0.22,0.15,0.4,0.29,0.4c0.26,0,0.55-0.36,1.1-0.84
		c0.84-0.69,1.46-1.39,3.21-1.39c3.39,0,6.06,2.45,6.06,5.95v9.82C69.67,98.17,69.56,98.28,69.3,98.28z"/>
	<path fill="#FFFFFF" d="M85.91,90.33h-9.53c-0.25,0-0.37,0.11-0.37,0.36v1.97c0,2.12,1.68,3.91,3.87,3.91
		c0.88,0,1.75-0.37,2.41-0.99c0.77-0.73,1.09-1.24,1.31-1.24c0.04,0,0.11,0,0.18,0.04l1.53,0.77c0.18,0.07,0.22,0.15,0.22,0.29
		c0,1.17-2.23,3.21-5.66,3.21c-3.87,0-6.31-2.37-6.31-5.99v-4.93c0-1.35,0.62-2.85,1.72-4.01c1.2-1.28,2.74-1.93,4.6-1.93
		c3.54,0,6.39,2.81,6.39,5.95v2.23C86.28,90.22,86.17,90.33,85.91,90.33z M83.79,87.74c0-2.08-1.71-3.87-3.91-3.87
		c-2.23,0-3.87,1.71-3.87,3.87v0.51c0,0.26,0.11,0.37,0.37,0.37h7.04c0.26,0,0.37-0.11,0.37-0.37V87.74z"/>
	<path fill="#FFFFFF" d="M101.76,95.44c0,1.17-2.23,3.21-5.66,3.21c-3.87,0-6.31-2.37-6.31-5.99v-4.93c0-3.61,2.45-5.95,6.31-5.95
		c3.39,0,5.69,1.93,5.69,3.14c0,0.11-0.11,0.22-0.26,0.29l-1.53,0.77c-0.07,0.04-0.11,0.04-0.15,0.04c-0.11,0-0.18-0.04-0.29-0.15
		c-1.09-1.02-1.82-2.01-3.47-2.01c-2.23,0-3.87,1.71-3.87,3.87v4.93c0,2.12,1.68,3.91,3.87,3.91c0.88,0,1.75-0.37,2.41-0.99
		c0.77-0.73,1.1-1.24,1.31-1.24c0.04,0,0.11,0,0.18,0.04l1.53,0.77C101.72,95.22,101.76,95.29,101.76,95.44z"/>
	<path fill="#FFFFFF" d="M111.69,98.61c-2.74,0-5.47-2.45-5.47-5.95V84.6c0-0.26-0.11-0.37-0.37-0.37h-2.12
		c-0.26,0-0.37-0.11-0.37-0.36v-0.69l4.12-4.34l0.26-0.11h0.58c0.22,0,0.37,0.11,0.37,0.36v2.7c0,0.25,0.11,0.37,0.37,0.37h2.66
		c0.26,0,0.37,0.11,0.37,0.36v1.35c0,0.25-0.11,0.36-0.37,0.36h-2.66c-0.26,0-0.37,0.11-0.37,0.37v8.07c0,0.88,0.26,1.64,0.8,2.41
		c0.4,0.55,1.24,0.84,2.3,1.39c0.18,0.07,0.29,0.15,0.29,0.37v1.42C112.09,98.5,111.98,98.61,111.69,98.61z"/>
</g>
<g>
	<path fill="#FFFFFF" d="M62.35,72.4c0,0.2-0.12,0.32-0.4,0.32h-4.15c-0.12,0-0.24-0.08-0.36-0.28L53.88,62.2
		c-0.05-0.14-0.15-0.24-0.32-0.24h-3.59c-0.28,0-0.4,0.12-0.4,0.4v9.96c0,0.28-0.12,0.4-0.4,0.4h-3.83c-0.28,0-0.4-0.12-0.4-0.4
		v-24.6c0-0.28,0.12-0.4,0.4-0.4h9.07c4.6,0,7.5,2.9,7.5,7.5v0.4c0,1.9-0.93,3.37-1.78,4.31c-0.58,0.66-1.31,1.1-1.57,1.26
		c-0.08,0.05-0.11,0.18-0.08,0.31l0.12,0.36l3.71,10.73C62.35,72.28,62.35,72.36,62.35,72.4z M57.24,54.46c0-1.57-1.33-2.9-2.9-2.9
		h-4.36c-0.28,0-0.4,0.12-0.4,0.4v5.36c0,0.28,0.12,0.4,0.4,0.4h4.36c1.57,0,2.9-1.29,2.9-2.9V54.46z"/>
	<path fill="#FFFFFF" d="M31.98,46.92c-4.5,0-7.48,2.86-7.48,7.12l0-0.03c0,3.04,0,3.04,0,18.29c0,0.28,0.12,0.4,0.4,0.4h3.82
		c0.28,0,0.4-0.12,0.4-0.4v-8.97c0-0.28,0.12-0.4,0.4-0.4h3.21h0.01h3.43c0.28,0,0.4,0.12,0.4,0.4v8.97c0,0.28,0.12,0.4,0.4,0.4
		h3.82c0.28,0,0.4-0.12,0.4-0.4c0-15.26,0-15.26,0-18.29l0,0.03c0-4.26-2.98-7.12-7.48-7.12H31.98z M32.73,58.69h-3.24
		c-0.28,0-0.4-0.12-0.4-0.4v-4.26l0-0.02c0-1.61,1.29-2.89,2.89-2.89l1.66-0.01c1.61,0,2.97,1.29,2.97,2.9l0,0.02v4.26
		c0,0.28-0.12,0.4-0.4,0.4h-3.46H32.73z"/>
	<path fill="#FFFFFF" d="M22.47,51.57h-4.82c-0.28,0-0.4,0.12-0.4,0.4v20.31c0,0.28-0.12,0.4-0.4,0.4h-3.78
		c-0.28,0-0.4-0.12-0.4-0.4V51.98c0-0.28-0.12-0.4-0.4-0.4H7.44c-0.28,0-0.4-0.12-0.4-0.4v-3.42c0-0.28,0.12-0.4,0.4-0.4h15.02
		c0.24,0,0.4,0.12,0.4,0.4v3.42C22.87,51.45,22.75,51.57,22.47,51.57z"/>
	<path fill="#FFFFFF" d="M79.28,48.28c1.57,1.13,2.53,2.94,2.53,3.42c0,0.12-0.08,0.24-0.24,0.32l-3.5,1.73
		c-0.08,0.04-0.16,0.04-0.2,0.04c-0.24,0-0.32-0.24-0.56-0.68c-0.68-1.25-1.45-1.93-2.62-1.93h-2.65c-1.61,0-2.89,1.29-2.89,2.89
		v11.91c0,1.61,1.29,2.89,2.89,2.89h2.04c1.61,0,2.91-1.25,2.91-2.89v-3.63c0-0.28-0.16-0.4-0.4-0.4h-3.9c-0.28,0-0.4-0.12-0.4-0.4
		v-3.42c0-0.28,0.12-0.4,0.4-0.4h8.4c0.28,0,0.4,0.12,0.4,0.4v7.85c0,4.26-2.98,7.12-7.48,7.12h-1.97c-4.54,0-7.48-2.85-7.48-7.12
		V54.07c0-4.26,2.98-7.12,7.48-7.12h2.65C76.54,46.95,78.03,47.39,79.28,48.28z"/>
	<path fill="#FFFFFF" d="M99.14,47.35h13.89c0.24,0,0.4,0.12,0.4,0.4v3.42c0,0.28-0.12,0.4-0.4,0.4h-4.8c-0.28,0-0.4,0.12-0.4,0.4
		v20.31c0,0.28-0.12,0.4-0.4,0.4h-3.78c-0.28,0-0.4-0.12-0.4-0.4V51.98c0-0.28-0.12-0.4-0.4-0.4l-13.27,0c-0.28,0-0.4,0.12-0.4,0.4
		v5.35c0,0.28,0.12,0.4,0.4,0.4h7.84c0.28,0,0.4,0.12,0.4,0.4v3.42c0,0.28-0.12,0.4-0.4,0.4h-7.84c-0.28,0-0.4,0.12-0.4,0.4v0.91
		l0.04,2.31c0,1.61,1.29,2.9,2.89,2.9l0.26-0.01h6.82c0.24,0,0.4,0.12,0.4,0.4v3.42c0,0.28-0.12,0.4-0.4,0.4h-7.11
		c-4.54,0-7.48-2.86-7.48-7.12V47.76c0-0.28,0.12-0.4,0.4-0.4L99.14,47.35L99.14,47.35z"/>
</g>
<path fill="#FFFFFF" d="M20.6,16.33c0,2.43-1.97,4.41-4.4,4.41l0,0c-2.43,0-4.4-1.97-4.4-4.41l0,0c0-2.43,1.97-4.41,4.4-4.41l0,0
	C18.63,11.92,20.6,13.9,20.6,16.33L20.6,16.33z"/>
<path fill="#FFFFFF" d="M33.66,16.33c0,2.43-1.97,4.41-4.4,4.41l0,0c-2.43,0-4.4-1.97-4.4-4.41l0,0c0-2.43,1.97-4.41,4.4-4.41l0,0
	C31.68,11.92,33.66,13.9,33.66,16.33L33.66,16.33z"/>
<path fill="#FFFFFF" d="M46.71,16.33c0,2.43-1.97,4.41-4.4,4.41l0,0c-2.43,0-4.4-1.97-4.4-4.41l0,0c0-2.43,1.97-4.41,4.4-4.41l0,0
	C44.73,11.92,46.71,13.9,46.71,16.33L46.71,16.33z"/>
</svg>
