<?xml version="1.0" encoding="UTF-8"?>
<svg width="78px" height="52px" viewBox="0 0 575 382" version="1.1" xmlns="http://www.w3.org/2000/svg"
>
    <title>PP</title>
    <defs>
        <filter id="filter">
            <feColorMatrix type="matrix" values="0 0 0 0 0.262745 0 0 0 0 0.329412 0 0 0 0 0.866667 0 0 0 1.000000 0"/>
        </filter>
    </defs>
    <g fill="none" stroke="none">
        <g filter="url(#filter)">
            <g transform="translate(0,382) scale(0.100000,-0.100000)"
               fill="#ffffff" stroke="none">
                <path d="M3458 3345 c-2 -3 -27 -9 -54 -15 -27 -5 -92 -19 -144 -30 -52 -11
-112 -23 -132 -27 -26 -4 -102 -50 -250 -153 -116 -81 -214 -152 -216 -158 -2
-8 8 -12 27 -12 70 0 14 -55 -87 -86 -63 -19 -86 -18 -133 7 -46 23 -104 23
-104 -1 0 -30 64 -50 140 -44 120 9 153 22 212 82 l54 54 102 13 c60 8 106 10
113 4 6 -5 23 -32 39 -60 l27 -51 -17 -58 c-42 -140 26 -282 163 -342 58 -25
157 -21 217 7 65 32 131 105 149 166 21 71 20 117 -5 185 -25 65 -80 126 -139
151 -40 18 -44 24 -74 117 l-16 48 95 98 c52 54 95 101 95 104 0 7 -55 8 -62
1z"/>
                <path d="M4135 2997 c-22 -7 -51 -18 -65 -26 -28 -15 -90 -71 -90 -82 0 -4 29
-25 64 -48 35 -23 94 -73 131 -112 l68 -70 -24 -26 c-86 -96 -324 -241 -499
-304 -57 -21 -82 -24 -195 -23 -117 1 -139 4 -220 32 -92 31 -148 58 -264 127
-141 83 -189 88 -352 35 -278 -91 -472 -252 -658 -546 -153 -240 -170 -263
-272 -366 -94 -94 -117 -111 -200 -151 -106 -51 -164 -63 -351 -73 -71 -4
-128 -10 -128 -14 0 -10 64 -51 130 -85 61 -31 138 -59 220 -81 30 -8 72 -19
93 -25 20 -5 37 -14 37 -19 0 -12 -119 -91 -236 -158 -240 -137 -450 -219
-753 -295 -51 -13 -91 -28 -89 -33 4 -12 263 -8 393 7 176 19 311 46 445 87
157 49 287 101 396 158 56 30 110 54 121 54 10 0 57 39 103 86 189 191 393
333 670 466 282 134 475 185 796 210 143 10 187 10 375 -7 269 -24 588 -31
689 -15 131 21 219 49 305 97 52 29 172 144 223 213 69 95 126 226 120 277 -2
20 -9 12 -32 -43 -43 -100 -98 -178 -191 -271 -121 -120 -246 -176 -454 -204
-104 -14 -475 -6 -571 12 -88 17 -482 17 -585 1 -97 -16 -277 -52 -288 -59 -6
-4 -138 18 -212 36 -38 9 -38 36 1 115 50 102 112 160 243 226 67 35 62 34
211 6 149 -28 375 -19 485 19 153 53 367 233 484 408 29 42 56 77 61 77 22 0
75 -123 93 -216 11 -54 15 -59 40 -62 46 -6 123 26 157 64 16 19 30 39 30 43
0 5 -34 39 -75 76 -124 111 -200 224 -279 412 -18 43 -39 79 -47 80 -8 1 -32
-4 -54 -10z"/>
                <path d="M2210 2594 c-220 -26 -520 -133 -748 -268 -91 -54 -297 -211 -306
-234 -3 -7 -2 -11 2 -10 261 124 457 200 635 248 123 32 304 60 396 60 79 0
88 2 185 49 101 49 281 111 323 111 43 0 32 17 -20 29 -51 12 -398 23 -467 15z"/>
                <path d="M5310 2530 c0 -3 9 -31 20 -62 68 -195 39 -452 -80 -698 -56 -118
-47 -117 33 3 103 152 148 274 155 417 4 85 -2 117 -40 217 -16 43 -86 141
-88 123z"/>
                <path d="M5260 2297 c0 -74 -84 -316 -151 -433 -54 -96 -229 -239 -344 -282
-166 -62 -276 -72 -728 -71 -389 1 -474 -4 -682 -40 -78 -14 -208 -49 -287
-77 -258 -93 -585 -303 -807 -518 -93 -91 -249 -281 -238 -292 2 -2 51 43 108
102 142 145 242 224 407 326 167 103 390 214 403 201 5 -5 0 -34 -11 -66 -47
-134 -120 -263 -247 -439 -47 -65 -83 -121 -80 -124 6 -6 95 55 207 140 304
234 470 422 540 612 11 30 14 31 128 52 194 36 283 42 602 42 718 0 944 92
1128 457 51 100 72 196 72 328 0 70 -4 115 -10 115 -5 0 -10 -15 -10 -33z"/>
                <path d="M2970 1544 c-158 -43 -408 -165 -612 -300 -132 -87 -298 -235 -399
-357 -89 -106 -51 -81 99 64 81 79 184 172 228 205 163 123 379 242 586 325
57 23 117 47 133 54 17 7 37 16 45 18 35 12 -28 5 -80 -9z"/>
            </g>
        </g>
    </g>
</svg>
